<?xml version="1.0" encoding="utf-8"?>
<!-- Generator: Adobe Illustrator 27.6.1, SVG Export Plug-In . SVG Version: 6.00 Build 0)  -->
<svg version="1.1" id="Camada_2_00000132059266079036950740000010664915099769876410_"
	 xmlns="http://www.w3.org/2000/svg" xmlns:xlink="http://www.w3.org/1999/xlink" x="0px" y="0px" viewBox="0 0 269.9 73.1"
	 style="enable-background:new 0 0 269.9 73.1;" xml:space="preserve">
<style type="text/css">
	.st0{fill:#0000CC;}
	.st1{fill:#FFFFFF;}
</style>
<g id="Camada_5">
	<g>
		<g>
			<path class="st0" d="M269.9,36.6c0,2.4-0.4,4.7-1.3,6.7s-2.1,3.9-3.8,5.6c-1.6,1.6-3.5,2.8-5.7,3.7c-2.1,0.8-4.4,1.3-6.9,1.3
				s-4.8-0.4-6.9-1.3c-2.1-0.9-4.1-2.1-5.7-3.7c-1.6-1.6-2.9-3.4-3.7-5.5c-0.8-2.1-1.3-4.3-1.3-6.8s0.4-4.7,1.3-6.8
				c0.8-2.1,2.1-3.9,3.7-5.5c1.6-1.6,3.6-2.8,5.7-3.7c2.1-0.8,4.5-1.3,6.9-1.3s4.8,0.4,6.9,1.3c2.1,0.8,4,2.1,5.7,3.7
				c1.6,1.6,2.9,3.5,3.7,5.5S269.9,34.1,269.9,36.6 M252.3,42.8c1.7,0,3-0.6,4-1.7c1-1.1,1.5-2.6,1.5-4.5s-0.5-3.4-1.5-4.6
				c-1-1.1-2.4-1.7-4-1.7s-3,0.6-4,1.7c-1,1.2-1.5,2.7-1.5,4.5s0.5,3.4,1.5,4.5C249.3,42.2,250.6,42.8,252.3,42.8 M204.3,53V20h14.9
				c4.3,0,7.6,1,9.9,2.8c2.3,1.9,3.4,4.7,3.4,8.2c0,2.3-0.6,4.3-1.7,5.8c-1.1,1.5-2.7,2.4-4.6,2.7l8.8,13.4h-13.3l-5.8-10.9V53
				L204.3,53L204.3,53z M215.9,28.5v6.4h1.8c1.1,0,2-0.3,2.6-0.8c0.6-0.5,0.9-1.3,0.9-2.4s-0.3-1.9-0.9-2.4
				c-0.6-0.6-1.5-0.8-2.6-0.8C217.7,28.5,215.9,28.5,215.9,28.5z M184.9,29.2v5.5h1.9c1.1,0,2-0.2,2.6-0.7c0.6-0.5,0.9-1.2,0.9-2
				s-0.3-1.5-0.9-2c-0.6-0.5-1.5-0.7-2.6-0.7L184.9,29.2L184.9,29.2z M173,53V20h14.1c5,0,8.6,1,10.9,2.9c2.3,1.9,3.5,5,3.5,9.1
				c0,3.9-1,6.7-3.1,8.5c-2.1,1.8-5.4,2.7-9.9,2.7h-3.7V53L173,53L173,53z M141.4,53V20h14.9c4.3,0,7.6,1,9.9,2.8
				c2.3,1.9,3.4,4.7,3.4,8.2c0,2.3-0.6,4.3-1.7,5.8c-1.1,1.5-2.7,2.4-4.6,2.7L172,53h-13.3L153,42.1V53L141.4,53L141.4,53z
				 M153,28.5v6.4h1.8c1.1,0,2-0.3,2.6-0.8c0.6-0.5,0.9-1.3,0.9-2.4s-0.3-1.9-0.9-2.4c-0.6-0.6-1.5-0.8-2.6-0.8
				C154.8,28.5,153,28.5,153,28.5z M115.6,53V20h22v8.9h-10.4v3.2h9.5v8.4h-9.5V44H138V53L115.6,53L115.6,53z M85.9,50.2l3.8-9.2
				c1.7,1.2,3.2,2.1,4.5,2.6c1.3,0.5,2.6,0.8,3.7,0.8c0.8,0,1.4-0.2,1.9-0.5c0.5-0.3,0.7-0.7,0.7-1.2c0-0.9-1.2-1.6-3.5-2.1
				c-0.8-0.2-1.3-0.3-1.8-0.4c-2.5-0.6-4.3-1.7-5.7-3.2c-1.3-1.5-2-3.4-2-5.7c0-3.5,1.3-6.4,3.8-8.6c2.5-2.2,5.9-3.3,10-3.3
				c1.9,0,3.8,0.2,5.6,0.7c1.8,0.5,3.7,1.2,5.5,2.2l-3.6,8.6c-1.1-0.8-2.3-1.5-3.4-1.9c-1.2-0.4-2.3-0.7-3.3-0.7
				c-0.8,0-1.5,0.1-1.9,0.4c-0.4,0.3-0.7,0.7-0.7,1.2c0,0.9,1.7,1.7,4.9,2.5c0.5,0.1,0.9,0.2,1.2,0.3c2.3,0.5,4.1,1.5,5.4,3.1
				c1.3,1.6,2,3.5,2,5.7c0,3.7-1.3,6.6-3.9,8.9s-6.1,3.5-10.3,3.5c-2.2,0-4.3-0.3-6.5-0.9C90.2,52.3,88,51.4,85.9,50.2"/>
			<path class="st0" d="M73.1,36.6c0,20.2-16.4,36.6-36.6,36.6S0,56.8,0,36.6S16.4,0,36.6,0S73.1,16.4,73.1,36.6"/>
			<path class="st1" d="M39.8,50.3c-6.2,6.2-16.2,6.2-22.4,0c-0.5-0.5-1-1.1-1.4-1.6c1,1.7,2.2,3.3,3.7,4.7c9.3,9.3,24.4,9.3,33.7,0
				c1.8-1.8,3.3-3.9,4.4-6.1L43.2,32.7C45.8,38.5,44.6,45.5,39.8,50.3"/>
			<path class="st1" d="M33.3,22.8c6.2-6.2,16.2-6.2,22.4,0c0.5,0.5,1,1.1,1.4,1.6c-1-1.7-2.2-3.3-3.7-4.8c-9.3-9.3-24.4-9.3-33.7,0
				c-1.8,1.8-3.3,3.9-4.4,6.1l14.6,14.6C27.4,34.6,28.5,27.6,33.3,22.8"/>
		</g>
	</g>
</g>
</svg>
